<svg xmlns="http://www.w3.org/2000/svg" version="1.1" xmlns:xlink="http://www.w3.org/1999/xlink" xmlns:svgjs="http://svgjs.dev/svgjs" width="1500" height="1500" viewBox="0 0 1500 1500"><rect width="1500" height="1500" fill="#000000"></rect><g transform="matrix(0.6666666666666666,0,0,0.6666666666666666,249.39393939393938,672.4410464051595)"><svg viewBox="0 0 396 61" data-background-color="#000000" preserveAspectRatio="xMidYMid meet" height="231" width="1500" xmlns="http://www.w3.org/2000/svg" xmlns:xlink="http://www.w3.org/1999/xlink"><g id="tight-bounds" transform="matrix(1,0,0,1,0.2400000000000091,0.22140369665760318)"><svg viewBox="0 0 395.52 60.55719260668479" height="60.55719260668479" width="395.52"><g><svg viewBox="0 0 481.9077270649865 73.7838264728056" height="60.55719260668479" width="395.52"><g transform="matrix(1,0,0,1,0,10.19733057619817)"><svg viewBox="0 0 395.52 53.38916532040926" height="53.38916532040926" width="395.52"><g id="textblocktransform"><svg viewBox="0 0 395.52 53.38916532040926" height="53.38916532040926" width="395.52" id="textblock"><g><svg viewBox="0 0 395.52 53.38916532040926" height="53.38916532040926" width="395.52"><g transform="matrix(1,0,0,1,0,0)"><svg width="395.52" viewBox="2.5 -37 278.52 37.6" height="53.38916532040926" data-palette-color="#48937e"><path d="M17.95 0.6L17.95 0.6Q13.4 0.6 9.9-1.58 6.4-3.75 4.45-7.78 2.5-11.8 2.5-17.35L2.5-17.35Q2.5-22.7 4.48-26.83 6.45-30.95 10.08-33.27 13.7-35.6 18.55-35.6L18.55-35.6Q21.05-35.6 23.1-35.13 25.15-34.65 26.95-33.8L26.95-33.8 25.5-29.8Q23.95-30.55 22.33-31 20.7-31.45 18.5-31.45L18.5-31.45Q15.3-31.45 12.78-29.8 10.25-28.15 8.8-25.05 7.35-21.95 7.35-17.55L7.35-17.55Q7.35-13.35 8.78-10.2 10.2-7.05 12.73-5.3 15.25-3.55 18.5-3.55L18.5-3.55Q20.95-3.55 22.75-4.15 24.55-4.75 26.25-5.7L26.25-5.7 27.7-1.75Q25.85-0.75 23.48-0.08 21.1 0.6 17.95 0.6ZM43.15 0.6L43.15 0.6Q39.45 0.6 36.5-1.13 33.55-2.85 31.87-5.93 30.2-9 30.2-13L30.2-13Q30.2-17.2 31.9-20.25 33.6-23.3 36.55-24.95 39.5-26.6 43.15-26.6L43.15-26.6Q46.8-26.6 49.72-24.95 52.65-23.3 54.37-20.28 56.1-17.25 56.1-13.1L56.1-13.1Q56.1-8.95 54.4-5.88 52.7-2.8 49.77-1.1 46.85 0.6 43.15 0.6ZM43.15-3.4L43.15-3.4Q47.1-3.4 49.3-6.08 51.5-8.75 51.5-13L51.5-13Q51.5-15.6 50.4-17.78 49.3-19.95 47.42-21.28 45.55-22.6 43.15-22.6L43.15-22.6Q39.2-22.6 37-20 34.8-17.4 34.8-13.1L34.8-13.1Q34.8-10.5 35.9-8.28 37-6.05 38.87-4.73 40.75-3.4 43.15-3.4ZM71.95 0.6L71.95 0.6Q68.75 0.6 66.09-1.05 63.45-2.7 61.9-5.73 60.35-8.75 60.35-12.85L60.35-12.85Q60.35-16.8 61.92-19.9 63.5-23 66.12-24.8 68.75-26.6 71.9-26.6L71.9-26.6Q74.5-26.6 76.37-25.55 78.25-24.5 79.3-23.4L79.3-23.4 79.3-37 83.8-37 83.8-6.3Q83.8-4.4 84.72-3.83 85.65-3.25 86.75-3.25L86.75-3.25 85.8 0.25Q81.05 0.25 80-3.55L80-3.55Q78.9-2 76.92-0.7 74.95 0.6 71.95 0.6ZM72.95-3.4L72.95-3.4Q74.8-3.4 76.47-4.28 78.15-5.15 79.3-6.55L79.3-6.55 79.3-19.45Q78.34-20.65 76.65-21.68 74.95-22.7 72.9-22.7L72.9-22.7Q70.5-22.7 68.7-21.4 66.9-20.1 65.92-17.93 64.95-15.75 64.95-13L64.95-13Q64.95-10.25 66-8.08 67.05-5.9 68.87-4.65 70.7-3.4 72.95-3.4ZM102.64 0.6L102.64 0.6Q97.04 0.6 93.77-2.98 90.49-6.55 90.49-13L90.49-13Q90.49-16.9 91.97-19.98 93.44-23.05 96.09-24.83 98.74-26.6 102.24-26.6L102.24-26.6Q105.99-26.6 108.47-24.98 110.94-23.35 112.19-20.6 113.44-17.85 113.44-14.55L113.44-14.55Q113.44-12.8 113.29-11.15L113.29-11.15 95.09-11.15Q95.54-7.5 97.64-5.45 99.74-3.4 103.19-3.4L103.19-3.4Q105.44-3.4 107.24-3.88 109.04-4.35 110.69-5.1L110.69-5.1 111.74-1.25Q109.94-0.45 107.69 0.08 105.44 0.6 102.64 0.6ZM95.04-14.8L95.04-14.8 109.29-14.8Q109.29-18.6 107.39-20.65 105.49-22.7 102.14-22.7L102.14-22.7Q99.24-22.7 97.34-20.68 95.44-18.65 95.04-14.8ZM145.04 0.4L145.04 0.4Q141.99 0.4 139.26 0.25 136.54 0.1 134.94-0.1L134.94-0.1 134.94-34.9Q136.69-35.1 139.29-35.25 141.89-35.4 145.24-35.4L145.24-35.4Q151.64-35.4 155.09-32.98 158.54-30.55 158.54-26.4L158.54-26.4Q158.54-23.65 157.06-21.73 155.59-19.8 152.79-18.55L152.79-18.55Q156.19-17.35 157.94-15.23 159.69-13.1 159.69-10L159.69-10Q159.69-5.25 155.94-2.43 152.19 0.4 145.04 0.4ZM139.69-31.3L139.69-19.9 145.19-19.9Q149.14-19.9 151.46-21.55 153.79-23.2 153.79-25.8L153.79-25.8Q153.79-28.6 151.49-30.08 149.19-31.55 145.19-31.55L145.19-31.55Q143.54-31.55 142.19-31.48 140.84-31.4 139.69-31.3L139.69-31.3ZM145.39-3.55L145.39-3.55Q149.84-3.55 152.34-5.15 154.84-6.75 154.84-9.8L154.84-9.8Q154.84-12.8 152.39-14.5 149.94-16.2 145.39-16.2L145.39-16.2 139.69-16.2 139.69-3.85Q142.34-3.55 145.39-3.55ZM174.44 0.6L174.44 0.6Q172.19 0.6 170.19-0.35 168.19-1.3 166.94-3.43 165.69-5.55 165.69-9.1L165.69-9.1 165.69-26 170.19-26 170.19-9.7Q170.19-6.65 171.49-5.03 172.78-3.4 175.28-3.4L175.28-3.4Q177.34-3.4 179.26-4.23 181.19-5.05 182.69-6.45L182.69-6.45 182.69-26 187.19-26 187.19-6.75Q187.19-4.6 188.11-3.93 189.03-3.25 190.13-3.25L190.13-3.25 189.19 0.25Q184.53 0.25 183.44-3.45L183.44-3.45Q181.69-1.65 179.38-0.53 177.09 0.6 174.44 0.6ZM203.13 0.6L203.13 0.6Q200.18 0.6 197.81-0.15 195.43-0.9 193.88-2.1L193.88-2.1 195.78-5.85Q197.08-4.75 199.06-4.03 201.03-3.3 203.28-3.3L203.28-3.3Q206.08-3.3 207.51-4.23 208.93-5.15 208.93-6.6L208.93-6.6Q208.93-7.65 208.41-8.45 207.88-9.25 206.48-10.03 205.08-10.8 202.43-11.7L202.43-11.7Q198.78-12.95 196.96-14.68 195.13-16.4 195.13-19.45L195.13-19.45Q195.13-22.45 197.76-24.53 200.38-26.6 205.03-26.6L205.03-26.6Q207.53-26.6 209.48-26.08 211.43-25.55 212.98-24.75L212.98-24.75 211.73-21.05Q210.38-21.85 208.66-22.35 206.93-22.85 204.83-22.85L204.83-22.85Q202.23-22.85 200.88-21.8 199.53-20.75 199.53-19.5L199.53-19.5Q199.53-18.3 200.58-17.45 201.63-16.6 204.68-15.6L204.68-15.6Q209.63-13.95 211.58-11.95 213.53-9.95 213.53-6.95L213.53-6.95Q213.53-3.45 210.71-1.43 207.88 0.6 203.13 0.6ZM228.63 0.6L228.63 0.6Q224.88 0.6 222.71-1.88 220.53-4.35 220.53-8.95L220.53-8.95 220.53-21.15 216.03-21.15 216.03-25.05 220.63-25.05 221.58-33.25 225.03-33.25 225.03-25.05 232.23-25.05 232.23-21.15 225.03-21.15 225.03-8.6Q225.03-5.7 226.25-4.55 227.48-3.4 229.18-3.4L229.18-3.4Q230.43-3.4 231.56-3.8 232.68-4.2 233.63-4.75L233.63-4.75 234.88-1.15Q233.88-0.55 232.18 0.03 230.48 0.6 228.63 0.6ZM248.78 0.6L248.78 0.6Q243.18 0.6 239.9-2.98 236.63-6.55 236.63-13L236.63-13Q236.63-16.9 238.1-19.98 239.58-23.05 242.23-24.83 244.88-26.6 248.38-26.6L248.38-26.6Q252.13-26.6 254.6-24.98 257.08-23.35 258.33-20.6 259.58-17.85 259.58-14.55L259.58-14.55Q259.58-12.8 259.43-11.15L259.43-11.15 241.23-11.15Q241.68-7.5 243.78-5.45 245.88-3.4 249.33-3.4L249.33-3.4Q251.58-3.4 253.38-3.88 255.18-4.35 256.83-5.1L256.83-5.1 257.88-1.25Q256.08-0.45 253.83 0.08 251.58 0.6 248.78 0.6ZM241.18-14.8L241.18-14.8 255.43-14.8Q255.43-18.6 253.53-20.65 251.63-22.7 248.28-22.7L248.28-22.7Q245.38-22.7 243.48-20.68 241.58-18.65 241.18-14.8ZM270.07 0L265.57 0 265.57-26 269.93-26 269.93-20.35Q270.57-22 271.68-23.43 272.77-24.85 274.43-25.73 276.07-26.6 278.27-26.6L278.27-26.6Q279.02-26.6 279.77-26.53 280.52-26.45 281.02-26.3L281.02-26.3 279.68-21.65Q278.72-22.05 277.43-22.05L277.43-22.05Q275.57-22.05 273.9-21 272.22-19.95 271.15-17.75 270.07-15.55 270.07-12.15L270.07-12.15 270.07 0Z" opacity="1" transform="matrix(1,0,0,1,0,0)" fill="#ffffff" class="wordmark-text-0" data-fill-palette-color="primary" id="text-0"></path></svg></g></svg></g></svg></g></svg></g><g transform="matrix(1,0,0,1,408.1239005921809,0)"><svg viewBox="0 0 73.7838264728056 73.7838264728056" height="73.7838264728056" width="73.7838264728056"><g data-palette-color="#f231aa"><rect width="20.167579235900195" height="73.7838264728056" fill="#ffffff" stroke="transparent" data-fill-palette-color="accent" x="0" fill-opacity="1"></rect><rect width="20.167579235900195" height="73.7838264728056" fill="#ffffff" stroke="transparent" data-fill-palette-color="accent" x="24.59460882426853" fill-opacity="0.75"></rect><rect width="20.167579235900195" height="73.7838264728056" fill="#ffffff" stroke="transparent" data-fill-palette-color="accent" x="49.18921764853706" fill-opacity="0.5"></rect></g></svg></g></svg></g><defs></defs></svg><rect width="395.52" height="60.55719260668479" fill="none" stroke="none" visibility="hidden"></rect></g></svg></g></svg>